<svg width="158" height="54" viewBox="0 0 158 54" fill="none" xmlns="http://www.w3.org/2000/svg">
<path fill-rule="evenodd" clip-rule="evenodd" d="M83.0247 21.0231V21.5117C83.0247 22.7817 83.3829 23.7671 84.0993 24.468C84.8167 25.1679 85.8104 25.5179 87.0804 25.5179H89.7429C91.0139 25.5179 92.0075 25.1679 92.7239 24.468C93.4404 23.7671 93.7986 22.7817 93.7986 21.5117V20.6813C93.7986 19.7041 93.6074 18.9017 93.2249 18.274C92.8415 17.6473 92.3648 17.2117 91.7948 16.9674C90.7206 16.5273 89.4913 16.2505 88.107 16.1371C86.7711 16.0227 86.1032 15.5831 86.1032 14.8181V14.3529C86.1032 13.62 86.2212 13.1277 86.4573 12.8761C86.6933 12.6236 87.1453 12.4973 87.8133 12.4973H88.7657C89.4172 12.4973 89.8651 12.6112 90.1094 12.839C90.3537 13.0669 90.4758 13.4983 90.4758 14.1333V14.2801C90.4758 14.6223 90.6469 14.7934 90.9891 14.7934H93.0657C93.4079 14.7934 93.579 14.6223 93.579 14.2801V13.8162C93.579 12.5453 93.2208 11.5599 92.5044 10.8599C91.787 10.16 90.7851 9.81 89.4986 9.81H87.0556C85.7857 9.81 84.7924 10.16 84.076 10.8599C83.3587 11.5599 83 12.5453 83 13.8162V14.6713C83 15.6805 83.1917 16.5072 83.5751 17.1513C83.9575 17.7946 84.4338 18.226 85.0038 18.4456C85.5738 18.6652 86.1887 18.8445 86.8484 18.9836C87.5081 19.1217 88.123 19.2151 88.693 19.2636C89.263 19.313 89.7393 19.464 90.1217 19.7165C90.5042 19.9681 90.6954 20.3304 90.6954 20.8035V21.0958C90.6954 21.7638 90.5692 22.2199 90.3166 22.4642C90.065 22.7085 89.6213 22.8306 88.9853 22.8306H87.838C87.1865 22.8306 86.7386 22.7167 86.4943 22.4889C86.25 22.261 86.1279 21.8374 86.1279 21.218V21.0231C86.1279 20.6809 85.9568 20.5098 85.6146 20.5098H83.538C83.1958 20.5098 83.0247 20.6809 83.0247 21.0231ZM104.939 22.8306H103.204C102.683 22.8306 102.316 22.7208 102.105 22.5012C101.893 22.2807 101.788 21.9102 101.788 21.3895V13.9384C101.788 13.4168 101.893 13.0463 102.105 12.8267C102.316 12.6071 102.683 12.4973 103.204 12.4973H104.939C105.46 12.4973 105.83 12.6071 106.051 12.8267C106.27 13.0463 106.38 13.4168 106.38 13.9384V21.3895C106.38 21.9102 106.27 22.2807 106.051 22.5012C105.83 22.7208 105.46 22.8306 104.939 22.8306ZM102.716 25.5179H105.452C106.739 25.5179 107.732 25.1757 108.432 24.4913C109.133 23.8078 109.483 22.8228 109.483 21.5364V13.7915C109.483 12.5051 109.133 11.5196 108.432 10.8352C107.732 10.1517 106.739 9.81 105.452 9.81H102.716C101.429 9.81 100.435 10.1517 99.7345 10.8352C99.0346 11.5196 98.6846 12.5051 98.6846 13.7915V21.5364C98.6846 22.8228 99.0346 23.8078 99.7345 24.4913C100.435 25.1757 101.429 25.5179 102.716 25.5179ZM124.849 9.81H122.798C122.455 9.81 122.284 9.98064 122.284 10.3219V21.3895C122.284 21.9102 122.174 22.2807 121.955 22.5012C121.734 22.7208 121.364 22.8306 120.843 22.8306H119.156C118.652 22.8306 118.29 22.7208 118.069 22.5012C117.85 22.2807 117.74 21.9102 117.74 21.3895V10.3219C117.74 9.98064 117.569 9.81 117.227 9.81H115.15C114.808 9.81 114.637 9.98064 114.637 10.3219V21.5364C114.637 22.8228 114.987 23.8078 115.688 24.4913C116.388 25.1757 117.381 25.5179 118.668 25.5179H121.355C122.626 25.5179 123.616 25.1721 124.324 24.4803C125.032 23.7877 125.386 22.8064 125.386 21.5364V10.2986C125.386 9.97286 125.207 9.81 124.849 9.81ZM131.299 25.5179H133.326C133.668 25.5179 133.839 25.3468 133.839 25.0046V15.9408H133.936L138.822 25.0293C138.985 25.3551 139.246 25.5179 139.605 25.5179H141.388C141.73 25.5179 141.901 25.3468 141.901 25.0046V10.3219C141.901 9.98064 141.73 9.81 141.388 9.81H139.36C139.018 9.81 138.847 9.98064 138.847 10.3219V19.4104H138.75L133.814 10.1517C133.701 9.92391 133.473 9.81 133.131 9.81H131.299C130.956 9.81 130.785 9.98064 130.785 10.3219V25.0046C130.785 25.3468 130.956 25.5179 131.299 25.5179ZM153.457 22.8306H150.793C150.615 22.8306 150.526 22.741 150.526 22.5616V12.7649C150.526 12.5865 150.615 12.4973 150.793 12.4973H153.457C153.978 12.4973 154.348 12.6071 154.569 12.8267C154.788 13.0463 154.898 13.4168 154.898 13.9384V21.3895C154.898 21.9102 154.788 22.2807 154.569 22.5012C154.348 22.7208 153.978 22.8306 153.457 22.8306ZM147.422 10.3219V25.0046C147.422 25.3468 147.593 25.5179 147.936 25.5179H153.969C155.24 25.5179 156.23 25.1721 156.938 24.4803C157.646 23.7877 158 22.8064 158 21.5364V13.7915C158 12.5215 157.646 11.5402 156.938 10.8476C156.23 10.1559 155.24 9.81 153.969 9.81H147.936C147.593 9.81 147.422 9.98064 147.422 10.3219ZM83.7364 44.1964H85.7896C86.1272 44.1964 86.296 44.0271 86.296 43.6885V38.7367C86.296 38.5601 86.3926 38.4718 86.5856 38.4718H88.2051L90.6207 43.6885C90.7012 43.8981 90.8055 44.0353 90.9336 44.1003C91.0626 44.1643 91.2722 44.1964 91.5622 44.1964H93.5193C93.9375 44.1964 94.0743 44.0033 93.9297 43.6172L91.3454 38.2302V38.1328C92.7782 37.5371 93.4946 36.3294 93.4946 34.5095V32.6264C93.4946 31.3702 93.1405 30.3957 92.4323 29.7031C91.7232 29.0104 90.7406 28.6641 89.4843 28.6641H83.7364C83.3978 28.6641 83.2286 28.8334 83.2286 29.1719V43.6885C83.2286 44.0271 83.3978 44.1964 83.7364 44.1964ZM88.9298 36.0082H86.5623C86.3848 36.0082 86.296 35.9194 86.296 35.7419V31.5875C86.296 31.41 86.3848 31.3212 86.5623 31.3212H88.9298C89.4449 31.3212 89.8233 31.4342 90.0648 31.6602C90.3064 31.8853 90.4272 32.2476 90.4272 32.7472V34.6302C90.4272 35.1134 90.3064 35.4638 90.0648 35.6816C89.8233 35.8993 89.4449 36.0082 88.9298 36.0082ZM105.331 41.5393H103.615C103.1 41.5393 102.738 41.4304 102.528 41.2126C102.32 40.9958 102.215 40.6298 102.215 40.1146V32.7472C102.215 32.2312 102.32 31.8647 102.528 31.6479C102.738 31.4301 103.1 31.3212 103.615 31.3212H105.331C105.846 31.3212 106.212 31.4301 106.43 31.6479C106.647 31.8647 106.755 32.2312 106.755 32.7472V40.1146C106.755 40.6298 106.647 40.9958 106.43 41.2126C106.212 41.4304 105.846 41.5393 105.331 41.5393ZM103.132 44.1964H105.839C107.11 44.1964 108.093 43.8583 108.785 43.1821C109.478 42.5059 109.824 41.5315 109.824 40.2587V32.6017C109.824 31.3299 109.478 30.3555 108.785 29.6784C108.093 29.0022 107.11 28.6641 105.839 28.6641H103.132C101.86 28.6641 100.878 29.0022 100.185 29.6784C99.4928 30.3555 99.1465 31.3299 99.1465 32.6017V40.2587C99.1465 41.5315 99.4928 42.5059 100.185 43.1821C100.878 43.8583 101.86 44.1964 103.132 44.1964ZM119.414 44.1964H121.973C123.23 44.1964 124.204 43.8542 124.897 43.1698C125.589 42.4853 125.936 41.515 125.936 40.2587V36.2251C125.936 35.8545 125.75 35.6692 125.38 35.6692H121.153C120.814 35.6692 120.645 35.8385 120.645 36.177V37.8199C120.645 38.1575 120.814 38.3263 121.153 38.3263H122.602C122.779 38.3263 122.868 38.4151 122.868 38.5926V40.1146C122.868 40.6298 122.763 40.9958 122.554 41.2126C122.344 41.4304 121.982 41.5393 121.467 41.5393H119.897C119.397 41.5393 119.039 41.4304 118.822 41.2126C118.604 40.9958 118.496 40.6298 118.496 40.1146V32.7472C118.496 32.2312 118.604 31.8647 118.822 31.6479C119.039 31.4301 119.397 31.3212 119.897 31.3212H121.467C121.982 31.3212 122.344 31.4301 122.554 31.6479C122.763 31.8647 122.868 32.2312 122.868 32.7472V33.3264C122.868 33.6805 123.037 33.8575 123.375 33.8575H125.428C125.766 33.8575 125.936 33.6805 125.936 33.3264V32.6017C125.936 31.3455 125.589 30.3751 124.897 29.6907C124.204 29.0063 123.23 28.6641 121.973 28.6641H119.414C118.141 28.6641 117.159 29.0022 116.467 29.6784C115.774 30.3555 115.428 31.3299 115.428 32.6017V40.2587C115.428 41.5315 115.774 42.5059 116.467 43.1821C117.159 43.8583 118.141 44.1964 119.414 44.1964ZM141.758 28.6641H139.728C139.39 28.6641 139.221 28.8334 139.221 29.1719V40.1146C139.221 40.6298 139.112 40.9958 138.895 41.2126C138.678 41.4304 138.311 41.5393 137.795 41.5393H136.129C135.629 41.5393 135.271 41.4304 135.054 41.2126C134.837 40.9958 134.728 40.6298 134.728 40.1146V29.1719C134.728 28.8334 134.559 28.6641 134.221 28.6641H132.168C131.83 28.6641 131.66 28.8334 131.66 29.1719V40.2587C131.66 41.5315 132.007 42.5059 132.699 43.1821C133.392 43.8583 134.374 44.1964 135.646 44.1964H138.303C139.559 44.1964 140.537 43.8542 141.237 43.1698C141.938 42.4853 142.289 41.515 142.289 40.2587V29.1472C142.289 28.8252 142.112 28.6641 141.758 28.6641ZM148.763 44.1964H156.661C156.983 44.1964 157.144 44.0271 157.144 43.6885V42.0471C157.144 41.7085 156.983 41.5393 156.661 41.5393H151.613C151.419 41.5393 151.322 41.4505 151.322 41.273V37.9159C151.322 37.7384 151.419 37.6497 151.613 37.6497H155.743C156.082 37.6497 156.251 37.4809 156.251 37.1432V35.5004C156.251 35.1618 156.082 34.9926 155.743 34.9926H151.613C151.419 34.9926 151.322 34.9043 151.322 34.7277V31.5875C151.322 31.41 151.419 31.3212 151.613 31.3212H156.661C156.983 31.3212 157.144 31.1524 157.144 30.8148V29.1719C157.144 28.8334 156.983 28.6641 156.661 28.6641H148.763C148.424 28.6641 148.255 28.8334 148.255 29.1719V43.6885C148.255 44.0271 148.424 44.1964 148.763 44.1964Z" fill="#111821"/>
<path fill-rule="evenodd" clip-rule="evenodd" d="M36.3314 2.01253C33.648 -0.670843 29.2974 -0.670843 26.614 2.01253L6.48525 22.1413C5.77908 22.8475 5.25875 23.6691 4.92426 24.5455H16.4515C17.6251 17.3078 23.9036 11.7818 31.4727 11.7818C39.0419 11.7818 45.3204 17.3078 46.494 24.5455H58.0212C57.6867 23.6691 57.1664 22.8475 56.4602 22.1413L36.3314 2.01253ZM6.48525 31.8587C5.77908 31.1525 5.25875 30.3309 4.92426 29.4545H16.4515C17.6251 36.6922 23.9036 42.2182 31.4727 42.2182C39.0419 42.2182 45.3204 36.6922 46.494 29.4545H58.0212C57.6867 30.3309 57.1664 31.1525 56.4602 31.8587L36.3314 51.9875C33.648 54.6708 29.2974 54.6708 26.614 51.9875L6.48525 31.8587ZM23.2012 22.1306C24.6871 19.8693 26.1305 17.6728 28.0364 17.6728C29.9422 17.6728 31.3856 19.8693 32.8715 22.1306C33.1985 22.6282 33.5276 23.1291 33.8642 23.6103C34.7677 24.9022 36.2953 25.5273 37.8718 25.5273H61.5273C62.3406 25.5273 63 26.1866 63 27C63 27.8134 62.3406 28.4727 61.5273 28.4727H44.7445C43.168 28.4727 41.6404 29.0977 40.7369 30.3897C40.4004 30.8709 40.0713 31.3718 39.7442 31.8695C38.2583 34.1307 36.8149 36.3273 34.9091 36.3273C33.0033 36.3273 31.5598 34.1307 30.074 31.8695C29.7469 31.3718 29.4178 30.8709 29.0812 30.3897C28.1777 29.0977 26.6502 28.4727 25.0737 28.4727H1.47273C0.659362 28.4727 0 27.8134 0 27C0 26.1866 0.659362 25.5273 1.47273 25.5273H18.2009C19.7775 25.5273 21.3051 24.9022 22.2086 23.6103C22.545 23.1292 22.8743 22.6282 23.2012 22.1306Z" fill="#111821"/>
</svg>
