<svg width="216" height="84" viewBox="0 0 216 84" fill="none" xmlns="http://www.w3.org/2000/svg">
<path d="M52.9877 57.0872C54.8945 56.2808 57.1384 56.012 59.2647 56.2472H59.3487C60.3104 56.348 61.02 57.2204 60.9193 58.1945C60.818 59.1689 59.9567 59.8754 58.978 59.7746C58.8261 59.7746 58.6565 59.7248 58.5215 59.6744C56.9354 59.0698 55.2649 58.7995 53.5101 59.0345C51.7553 59.2531 50.001 59.9933 48.3305 60.8835C46.6599 61.7571 44.9547 62.664 43.2334 63.4872C43.1661 63.5208 43.0819 63.5539 42.9978 63.5873C43.2842 63.4867 43.5539 63.3697 43.8234 63.2691C45.8315 62.5467 48.0094 61.9587 50.2538 61.7235H50.3047C51.2831 61.6232 52.1429 62.328 52.2445 63.3019C52.3456 64.2761 51.6375 65.1499 50.6591 65.2509C50.4905 65.2677 50.3214 65.268 50.1697 65.2346C48.246 64.8986 46.2712 64.8488 44.1958 64.9999C42.1202 65.1343 40.0096 65.3864 37.9171 65.5544C39.7227 64.9496 41.445 64.1429 43.0819 63.1855C44.7188 62.2447 46.2549 61.1187 47.8411 60.0435C49.4441 58.9853 51.0641 57.8767 52.9877 57.0872ZM54.9453 50.3163C57.7802 49.0901 61.0031 48.2323 64.3272 48.5345H64.3437C65.3056 48.6185 66.015 49.4768 65.9306 50.4344C65.8459 51.3915 64.9855 52.1131 64.0239 52.0291C63.9733 52.0291 63.9394 52.0296 63.8889 52.0128L63.9053 52.0291C61.3236 51.5924 58.5726 51.9459 55.8897 52.8363C53.2067 53.7099 50.5744 55.0034 47.9927 56.4146C45.4108 57.8258 42.8456 59.3374 40.1962 60.6982C37.5469 62.0422 34.7787 63.2852 31.8593 63.8564C34.6943 62.9828 37.2608 61.4887 39.7415 59.8927C42.2051 58.2799 44.5844 56.5326 47.0649 54.8526C49.5455 53.1726 52.0936 51.5595 54.9453 50.3163ZM65.4576 40.7909C66.4195 40.6565 67.3134 41.3115 67.4484 42.2691C67.5834 43.2265 66.9254 44.1161 65.9635 44.2673H65.8285L65.8466 44.2855C62.5053 44.5207 59.2139 45.326 56.0414 46.6364C52.8689 47.93 49.8477 49.6771 46.8442 51.5419C43.8575 53.4065 40.888 55.3892 37.7327 57.0691C34.5939 58.7659 31.2684 60.1772 27.7921 60.9164C31.184 59.858 34.3072 58.1779 37.2266 56.2291C40.1458 54.2804 42.9308 52.1131 45.7993 49.9964C48.6678 47.8966 51.6373 45.8299 54.9107 44.1836C58.1676 42.5372 61.7453 41.3285 65.4576 40.7909ZM44.86 46.7939C42.0216 49.4893 38.7204 51.6896 35.2855 53.5745C33.5473 54.4985 31.7589 55.3558 29.9197 56.0782C28.0803 56.8006 26.2062 57.4222 24.2656 57.8254C31.533 54.8779 38.3311 51.1446 44.86 46.7939ZM38.5087 44.9909C36.2983 47.3426 33.6491 49.2572 30.8144 50.8364C27.9794 52.382 24.9406 53.5925 21.8018 54.2981V54.2801C24.7381 52.9361 27.6251 51.6092 30.3926 50.0636C33.1768 48.535 35.8428 46.8219 38.5087 44.9909ZM38.896 38.8927C34.1206 43.5795 28.5182 47.7118 21.9205 50.1982H21.9041C20.993 50.5508 19.9792 50.0813 19.6413 49.1744C19.304 48.2672 19.7601 47.2414 20.6714 46.9054C20.7725 46.8718 20.8739 46.8386 20.9581 46.8217H20.9746C27.2857 45.6458 33.3781 42.6893 38.896 38.8927ZM44.9209 46.7545C44.9008 46.768 44.8801 46.7804 44.86 46.7939C44.8799 46.7749 44.901 46.7571 44.9209 46.7381V46.7545ZM64.1245 33.8345C65.0357 33.4819 66.0479 33.9529 66.3854 34.86C66.7229 35.767 66.268 36.791 65.3572 37.1273C65.2561 37.1609 65.1547 37.1959 65.0703 37.2127H65.0523C58.7412 38.3887 52.6488 41.3451 47.1309 45.1418C51.9065 40.4545 57.5098 36.3209 64.108 33.8345H64.1245ZM58.2363 23.1164C54.8444 24.1748 51.7212 25.8548 48.8018 27.8036C45.8828 29.7523 43.0993 31.9198 40.2308 34.0364C37.3623 36.1363 34.3914 38.2027 31.1177 39.8491C27.8608 41.4955 24.2833 42.7059 20.5708 43.2435C19.6093 43.3779 18.7154 42.7225 18.5801 41.7655C18.4451 40.8079 19.103 39.9166 20.0649 39.7654H20.2001L20.182 39.7491C23.5232 39.5139 26.8147 38.7068 29.9872 37.3964C33.1595 36.1028 36.1808 34.3556 39.1844 32.4908C42.1711 30.6262 45.1406 28.6435 48.2959 26.9636C51.4347 25.2668 54.7601 23.8556 58.2363 23.1164ZM64.2266 29.7528C61.2903 31.0968 58.4034 32.4235 55.6359 33.9691C52.8517 35.4979 50.1859 37.2125 47.5198 39.0435C49.7303 36.6917 52.3792 34.7755 55.214 33.1964C58.049 31.6508 61.0878 30.4419 64.2266 29.7363V29.7528ZM41.1077 37.2963V37.2799C41.1272 37.2667 41.1473 37.2536 41.1669 37.2405C41.1473 37.2592 41.1272 37.2777 41.1077 37.2963ZM61.763 26.2073C54.4949 29.1552 47.6963 32.8893 41.1669 37.2405C44.0056 34.5445 47.3075 32.3435 50.7431 30.4582C52.4811 29.5342 54.2697 28.6769 56.1089 27.9545C57.9482 27.2321 59.8224 26.6105 61.763 26.2073ZM54.1693 20.1764C51.3344 21.0499 48.7693 22.5459 46.2888 24.1417C43.8251 25.7545 41.4442 27.5017 38.9635 29.1817C36.4831 30.8616 33.9348 32.4751 31.0831 33.7181C28.2482 34.9443 25.0255 35.8004 21.7014 35.4982H21.6849C20.723 35.4142 20.0136 34.5576 20.098 33.6C20.1823 32.6425 21.0428 31.9198 22.0045 32.0036C22.0551 32.0036 22.0892 32.0033 22.1397 32.0201L22.1233 32.0036C24.705 32.4404 27.4558 32.0885 30.1389 31.1981C32.8217 30.3245 35.454 29.0311 38.0357 27.6199C40.6176 26.2087 43.183 24.6953 45.8323 23.3345C48.4815 21.9907 51.2499 20.7476 54.1693 20.1764ZM48.1278 18.48C46.3222 19.0848 44.6001 19.8915 42.9632 20.8491C41.3265 21.7897 39.7916 22.9159 38.2055 23.9909C36.6024 25.0493 34.981 26.1576 33.0573 26.9472C31.1506 27.7534 28.9064 28.0224 26.7803 27.7872H26.7128C25.7509 27.6864 25.0427 26.8124 25.1439 25.8382C25.2452 24.8641 26.1051 24.1594 27.0835 24.2599C27.2354 24.2767 27.405 24.326 27.54 24.3764C29.1263 24.9811 30.7965 25.2497 32.5514 25.0145C34.3064 24.7961 36.062 24.0576 37.7327 23.1672C39.403 22.2937 41.107 21.3867 42.8281 20.5635C42.8956 20.5299 42.981 20.4955 43.0653 20.4619C42.7785 20.5627 42.5081 20.6809 42.2381 20.7817C40.23 21.5041 38.0521 22.092 35.8077 22.3272H35.7583C34.7795 22.428 33.9182 21.7217 33.817 20.7473C33.7163 19.7732 34.4255 18.9007 35.4041 18.7999C35.5727 18.7832 35.7418 18.7827 35.8935 18.8163C37.817 19.1521 39.7919 19.202 41.8672 19.0508L41.8492 19.0345C43.9248 18.9001 46.0353 18.648 48.1278 18.48Z" fill="url(#paint0_linear_5082_7386)"/>
<path d="M89.7508 26.7085C94.6108 26.7085 96.1042 26.7589 97.2939 26.9605C99.9011 27.4393 101.167 28.7749 101.521 31.4713C101.622 32.1517 101.673 33.5125 101.673 35.5537C101.673 39.6109 101.243 41.2489 99.7998 42.4333C98.7873 43.2901 97.3698 43.6933 94.9145 43.7941C94.0033 43.8445 91.7505 43.8697 90.1052 43.8697C86.0805 43.8697 84.0302 43.7941 83.0177 43.5925C81.1445 43.2649 80.0561 42.5593 79.4233 41.3245C78.7652 40.0897 78.6133 38.8549 78.6133 35.1757C78.6133 32.3533 78.6639 31.6477 78.9677 30.5137C79.4486 28.7245 80.4358 27.7669 82.3342 27.2125C83.7517 26.8093 85.2958 26.7085 89.7508 26.7085ZM90.1558 30.8161C86.3842 30.8161 85.3464 30.9421 84.6883 31.4209C84.0048 31.9501 83.8023 32.7817 83.8023 35.2009C83.8023 37.6705 84.0048 38.5777 84.6377 39.1069C85.3211 39.6613 86.1564 39.7621 90.0292 39.7621C94.4589 39.7621 95.3702 39.6109 95.9523 38.8045C96.4333 38.1997 96.5598 37.3429 96.5598 35.1001C96.5598 30.8665 96.4839 30.8161 90.1558 30.8161ZM104.979 43.6933V39.8377L117.737 30.6901H105.308V26.8849H125.255V30.7405L112.345 39.8881H125.457V43.6933H104.979ZM139.931 26.7085C144.791 26.7085 146.284 26.7589 147.474 26.9605C150.081 27.4393 151.347 28.7749 151.701 31.4713C151.803 32.1517 151.853 33.5125 151.853 35.5537C151.853 39.6109 151.423 41.2489 149.98 42.4333C148.968 43.2901 147.55 43.6933 145.095 43.7941C144.183 43.8445 141.931 43.8697 140.285 43.8697C136.261 43.8697 134.21 43.7941 133.198 43.5925C131.325 43.2649 130.236 42.5593 129.603 41.3245C128.945 40.0897 128.793 38.8549 128.793 35.1757C128.793 32.3533 128.844 31.6477 129.148 30.5137C129.629 28.7245 130.616 27.7669 132.514 27.2125C133.932 26.8093 135.476 26.7085 139.931 26.7085ZM140.336 30.8161C136.564 30.8161 135.527 30.9421 134.868 31.4209C134.185 31.9501 133.983 32.7817 133.983 35.2009C133.983 37.6705 134.185 38.5777 134.818 39.1069C135.501 39.6613 136.337 39.7621 140.209 39.7621C144.639 39.7621 145.55 39.6109 146.133 38.8045C146.613 38.1997 146.74 37.3429 146.74 35.1001C146.74 30.8665 146.664 30.8161 140.336 30.8161ZM155.894 43.6933V26.8849H164.07L174.296 39.6613L174.169 26.8849H179.029V43.6933H170.777L160.703 31.0429L160.83 43.6933H155.894ZM183.407 26.8849H202.113V30.6901H188.469V33.5881H201.328V36.9145H188.469V39.8881H202.29V43.6933H183.407V26.8849Z" fill="white"/>
<path d="M81.7344 51.5171H87.9697V52.7855H83.4219V53.7515H87.7081V54.8603H83.4219V55.8515H88.0287V57.1199H81.7344V51.5171ZM97.2297 57.1199V51.5171H98.9425V55.7339H102.815V57.1199H97.2297ZM111.646 51.5171H117.881V52.7855H113.333V53.7515H117.619V54.8603H113.333V55.8515H117.94V57.1199H111.646V51.5171ZM127.141 57.1199V51.5171H129.858L131.908 55.2383L133.95 51.5171H136.65V57.1199H134.979L135.064 52.7939L132.566 57.1199H131.199L128.744 52.7939L128.795 57.1199H127.141ZM146.048 51.5171H152.283V52.7855H147.735V53.7515H152.021V54.8603H147.735V55.8515H152.342V57.1199H146.048V51.5171ZM161.543 57.1199V51.5171H164.268L167.677 55.7759L167.635 51.5171H169.255V57.1199H166.504L163.146 52.9031L163.188 57.1199H161.543ZM180.777 57.1199V52.9031H178.271V51.5171H184.996V52.9031H182.49V57.1199H180.777ZM193.973 55.3307H195.652C195.669 55.7171 195.712 55.8095 195.914 55.8851C196.041 55.9355 196.521 55.9691 197.061 55.9691C199.044 55.9691 199.281 55.9103 199.281 55.4483C199.281 55.2215 199.171 55.0535 198.994 54.9947C198.808 54.9359 198.808 54.9359 197.922 54.9275H196.37C195.332 54.9275 194.901 54.8687 194.539 54.6839C194.134 54.4739 193.948 54.0287 193.948 53.2643C193.948 52.2563 194.235 51.8279 195.045 51.6347C195.501 51.5171 196.159 51.4751 197.391 51.4751C199.365 51.4751 199.821 51.5255 200.226 51.7859C200.614 52.0463 200.74 52.3907 200.74 53.2307H199.07C199.07 52.7435 198.901 52.6763 197.796 52.6763C197.247 52.6763 196.513 52.6931 196.243 52.7099C195.787 52.7435 195.636 52.8611 195.636 53.1803C195.636 53.4155 195.754 53.5667 195.998 53.6255C196.1 53.6507 196.133 53.6591 196.69 53.6675H198.285C198.437 53.6675 199.196 53.6927 199.483 53.7095C200.555 53.7599 200.977 54.2303 200.977 55.3559C200.977 56.3891 200.673 56.8427 199.846 57.0191C199.424 57.1115 198.589 57.1619 197.365 57.1619C195.416 57.1619 194.986 57.1199 194.488 56.8679C194.142 56.6999 193.965 56.2715 193.965 55.6079C193.965 55.5575 193.965 55.4483 193.973 55.3307Z" fill="#9BACB1"/>
<defs>
<linearGradient id="paint0_linear_5082_7386" x1="28.687" y1="18.48" x2="56.8201" y2="66.3427" gradientUnits="userSpaceOnUse">
<stop stop-color="#3AD7EE"/>
<stop offset="1" stop-color="#1BAED8"/>
</linearGradient>
</defs>
</svg>
